# xmcd
#
# Track frame offsets:
# 150
# 13085
# 24929
# 39870
# 51014
# 64106
# 73540
# 85691
# 93867
# 103530
# 115486
# 126072
# 138037
# 149078
# 160734
# 171728
# 182510
# 192285
# 201496
# 212411
# 222239
# 232220
# 243594
# 255685
#
# Disc length: 3553 seconds
#
# Revision: 0
# Processed by: cddbd v1.5.2PL0 Copyright (c) Steve Scherf et al.
# Submitted via: Axialis_AX_CDPlayer 2.6
#
DISCID=5a0ddf18
DTITLE=Porter Wagoner - The Cold Hard Facts Of Life [CD2 of 3)
DYEAR=1900
DGENRE=
TTITLE0=The First Mrs. Jones
TTITLE1=Words And Music
TTITLE2=The Cold Hard Facts Of Life
TTITLE3=Sleep
TTITLE4=Hundred Dollar Funeral
TTITLE5=If I Could Only Start Over
TTITLE6=Tragic Romance
TTITLE7=Try Being Lonely
TTITLE8=I'll Get Ahead Someday
TTITLE9=I Just Can't Let You Say Goodbye
TTITLE10=Shopworn
TTITLE11=Julie
TTITLE12=Wino
TTITLE13=Daddy And The Wine
TTITLE14=Swinging Doors
TTITLE15=The Bottom Of The Bottle
TTITLE16=In The Shadows Of The Wine
TTITLE17=She Burned The Little Roadside Tavern Down
TTITLE18=The Bottle Let Me Down
TTITLE19=One Dime For Wine
TTITLE20=Wine
TTITLE21=Turn The Jukebox Up Louder
TTITLE22=I Threw Away The Rose
TTITLE23=Bottle, Bottle
EXTD=www.porterwagoner.com
EXTT0=
EXTT1=
EXTT2=
EXTT3=
EXTT4=
EXTT5=
EXTT6=
EXTT7=
EXTT8=
EXTT9=
EXTT10=
EXTT11=
EXTT12=
EXTT13=
EXTT14=
EXTT15=
EXTT16=
EXTT17=
EXTT18=
EXTT19=
EXTT20=
EXTT21=
EXTT22=
EXTT23=
PLAYORDER=
